#N canvas 0 0 2560 1369 12;
#X obj 193 509 list append;
#X obj 121 164 vsl 20 170 10 20000 1 0 empty empty Freq 0 -9 0 12 #fcfcfc #000000 #000000 0 1;
#X obj 259 165 vsl 20 170 10 20000 1 0 empty empty Freq 0 -9 0 12 #fcfcfc #000000 #000000 0 1;
#X obj 431 165 vsl 20 170 10 20000 1 0 empty empty Freq 0 -9 0 12 #fcfcfc #000000 #000000 0 1;
#X obj 608 165 vsl 20 170 10 20000 1 0 empty empty Freq 0 -9 0 12 #fcfcfc #000000 #000000 0 1;
#X obj 779 164 vsl 20 170 10 20000 1 0 empty empty Freq 0 -9 0 12 #fcfcfc #000000 #000000 0 1;
#X obj 158 165 vsl 20 170 0.01 5 0 0 empty empty Q 0 -9 0 12 #fcfcfc #000000 #000000 0 1;
#X obj 293 165 vsl 20 170 0.01 5 0 0 empty empty Q 0 -9 0 12 #fcfcfc #000000 #000000 0 1;
#X obj 469 165 vsl 20 170 0.01 5 0 0 empty empty Q 0 -9 0 12 #fcfcfc #000000 #000000 0 1;
#X obj 646 165 vsl 20 170 0.01 5 0 0 empty empty Q 0 -9 0 12 #fcfcfc #000000 #000000 0 1;
#X obj 825 165 vsl 20 170 0.01 5 0 0 empty empty Q 0 -9 0 12 #fcfcfc #000000 #000000 0 1;
#X obj 330 165 vsl 20 170 -12 12 0 1 empty empty Gain 0 -9 0 12 #fcfcfc #000000 #000000 13715 1;
#X obj 507 165 vsl 20 170 -12 12 0 0 empty empty Gain 0 -9 0 12 #fcfcfc #000000 #000000 0 1;
#X obj 683 165 vsl 20 170 -12 12 0 0 empty empty Gain 0 -9 0 12 #fcfcfc #000000 #000000 0 1;
#X obj 121 429 pack f f f f f;
#X obj 274 429 pack f f f f f;
#X obj 298 21 loadbang;
#X floatatom 186 187 6 0 0 0 - - - 0;
#X floatatom 187 221 6 0 0 0 - - - 0;
#X floatatom 363 186 7 0 0 0 - - - 10;
#X floatatom 364 220 7 0 0 0 - - - 10;
#X floatatom 365 250 7 0 0 0 - - - 10;
#X floatatom 535 185 8 0 0 0 - - - 12;
#X floatatom 536 219 8 0 0 0 - - - 12;
#X floatatom 537 249 8 0 0 0 - - - 12;
#X floatatom 710 187 8 0 0 0 - - - 12;
#X floatatom 710 215 8 0 0 0 - - - 12;
#X floatatom 710 249 8 0 0 0 - - - 12;
#X floatatom 857 183 6 0 0 0 - - - 0;
#X floatatom 858 213 6 0 0 0 - - - 0;
#X obj 40 340 tgl 20 0 empty empty empty 0 -10 0 12 #fcfcfc #000000 #000000 0 1;
#X obj 457 429 pack 0 f f f 0;
#X obj 193 540 list append;
#X obj 193 590 list prepend send;
#X obj 193 670 netsend -u -b;
#X msg 327 641 disconnect;
#X obj 765 407 vsl 20 170 -60 0 0 0 empty empty Master 0 -9 0 12 #fcfcfc #000000 #000000 0 1;
#X floatatom 765 595 5 0 0 0 - - - 0;
#X obj 766 675 oscformat osc master_vol;
#X obj 766 650 dbtorms;
#X floatatom 851 641 5 0 0 0 - - - 0;
#X obj 766 624 + 100;
#X msg 324 615 connect 192.168.0.2 8888;
#X obj 41 365 metro 500;
#X msg 298 53 20 250 500 2000 20000 0.7 0;
#X obj 298 84 unpack f f f f f f f;
#X obj 766 736 print master_vol;
#X obj 25 653 print filters_params;
#X obj 193 565 oscformat osc filters_params;
#X obj 193 625 list trim;
#X connect 0 0 32 0;
#X connect 1 0 14 0;
#X connect 1 0 17 0;
#X connect 2 0 14 1;
#X connect 2 0 19 0;
#X connect 3 0 14 2;
#X connect 3 0 22 0;
#X connect 4 0 14 3;
#X connect 4 0 25 0;
#X connect 5 0 14 4;
#X connect 5 0 28 0;
#X connect 6 0 15 0;
#X connect 6 0 18 0;
#X connect 7 0 15 1;
#X connect 7 0 20 0;
#X connect 8 0 15 2;
#X connect 8 0 23 0;
#X connect 9 0 15 3;
#X connect 9 0 26 0;
#X connect 10 0 29 0;
#X connect 10 0 15 4;
#X connect 11 0 21 0;
#X connect 11 0 31 1;
#X connect 12 0 31 2;
#X connect 12 0 24 0;
#X connect 13 0 31 3;
#X connect 13 0 27 0;
#X connect 14 0 0 0;
#X connect 15 0 0 1;
#X connect 16 0 44 0;
#X connect 30 0 43 0;
#X connect 31 0 32 1;
#X connect 32 0 48 0;
#X connect 33 0 49 0;
#X connect 35 0 34 0;
#X connect 36 0 37 0;
#X connect 37 0 41 0;
#X connect 38 0 33 0;
#X connect 38 0 46 0;
#X connect 39 0 38 0;
#X connect 39 0 40 0;
#X connect 41 0 39 0;
#X connect 42 0 34 0;
#X connect 43 0 14 0;
#X connect 43 0 15 0;
#X connect 43 0 31 0;
#X connect 44 0 45 0;
#X connect 45 0 1 0;
#X connect 45 1 2 0;
#X connect 45 2 3 0;
#X connect 45 3 4 0;
#X connect 45 4 5 0;
#X connect 45 5 6 0;
#X connect 45 5 7 0;
#X connect 45 5 8 0;
#X connect 45 5 9 0;
#X connect 45 5 10 0;
#X connect 45 6 11 0;
#X connect 45 6 12 0;
#X connect 45 6 13 0;
#X connect 48 0 33 0;
#X connect 49 0 34 0;
#X connect 49 0 47 0;
